<svg width="24" height="24" viewBox="0 0 24 24" fill="none" xmlns="http://www.w3.org/2000/svg">
<path d="M17.5941 12.6253C17.603 11.86 17.8059 11.1093 18.1839 10.4438C18.5619 9.77821 19.1027 9.21946 19.7555 8.81986C19.3406 8.22901 18.7943 7.74238 18.1596 7.39818C17.5249 7.05397 16.8191 6.86155 16.0975 6.83603C14.5398 6.67813 13.0582 7.75296 12.2689 7.75296C11.4792 7.75296 10.2599 6.85922 8.96808 6.88388C8.12025 6.90745 7.29309 7.15087 6.56764 7.59028C5.84218 8.0297 5.24333 8.65004 4.82975 9.39053C3.06736 12.4507 4.37986 16.9842 6.09739 19.4673C6.93784 20.6812 7.93967 22.0484 9.25516 21.9986C10.5229 21.9488 11.0013 21.1798 12.5319 21.1798C14.0629 21.1798 14.4935 21.9986 15.8327 21.9739C17.1956 21.9488 18.0607 20.735 18.8943 19.5165C19.491 18.6404 19.9572 17.6822 20.2784 16.672C19.4849 16.3331 18.8078 15.7694 18.3309 15.0503C17.8539 14.3312 17.5978 13.4882 17.5941 12.6253V12.6253Z" fill="#202020"/>
<path d="M15.216 5.04C16.1736 3.92124 16.6483 2.46833 16.536 1C15.093 1.13974 13.7582 1.82679 12.806 2.92L12.7857 2.96688C11.8281 4.08564 11.3534 5.53855 11.4657 7.00688C12.9087 6.86714 14.2434 6.18009 15.1957 5.08688L15.216 5.04Z" fill="#202020"/>
</svg>
