<svg width="20" height="18" viewBox="0 0 20 18" fill="none" xmlns="http://www.w3.org/2000/svg">
<path fill-rule="evenodd" clip-rule="evenodd" d="M2.66097 0.284977C2.281 -0.0949924 1.66495 -0.0949924 1.28498 0.284977C0.905008 0.664947 0.905008 1.281 1.28498 1.66097L3.39837 3.77437C2.05875 5.02517 0.918894 6.66036 0.0834846 8.6C0.0284214 8.72617 0 8.86234 0 9C0 9.13766 0.0284214 9.27383 0.0834846 9.4C2.10348 14.09 5.90348 17 10.0035 17C11.7877 17 13.5152 16.4489 15.0638 15.4398L17.339 17.715C17.719 18.095 18.3351 18.095 18.715 17.715C19.095 17.3351 19.095 16.719 18.715 16.339L2.66097 0.284977ZM13.6083 13.9842L12.0568 12.4328C11.8899 12.5326 11.7153 12.6205 11.5342 12.6955C10.8033 12.9983 9.99905 13.0775 9.22312 12.9231C8.4472 12.7688 7.73447 12.3878 7.17506 11.8284C6.61565 11.269 6.23468 10.5563 6.08034 9.78036C5.926 9.00444 6.00522 8.20017 6.30797 7.46927C6.38298 7.28816 6.47089 7.11356 6.57071 6.9467L4.8172 5.19319C3.74785 6.17946 2.8175 7.46879 2.10348 9C3.83348 12.71 6.83348 15 10.0035 15C11.254 15 12.4781 14.6436 13.6083 13.9842ZM8.07914 8.45513C8.06472 8.50605 8.05229 8.55765 8.04191 8.60982C7.96474 8.99778 8.00435 9.39991 8.15573 9.76537C8.3071 10.1308 8.56345 10.4432 8.89234 10.6629C9.22124 10.8827 9.60792 11 10.0035 11C10.1894 11 10.3726 10.9741 10.5484 10.9244L8.07914 8.45513Z" fill="black"/>
<path d="M9.45236 5.03815L13.9653 9.55113C13.9906 9.36922 14.0035 9.1851 14.0035 9C14.0035 7.93913 13.5821 6.92172 12.8319 6.17157C12.0818 5.42143 11.0644 5 10.0035 5C9.81839 5 9.63426 5.01284 9.45236 5.03815Z" fill="black"/>
<path d="M17.9035 9C17.4193 10.0384 16.8356 10.9655 16.1765 11.7623L17.6004 13.1861C18.5142 12.114 19.3028 10.841 19.9235 9.4C19.9785 9.27383 20.007 9.13766 20.007 9C20.007 8.86234 19.9785 8.72617 19.9235 8.6C17.9035 3.91 14.1035 1 10.0035 1C8.70715 1 7.4408 1.29091 6.25123 1.83702L7.78963 3.37542C8.5082 3.12902 9.25105 3 10.0035 3C13.1735 3 16.1735 5.29 17.9035 9Z" fill="black"/>
</svg>
