<svg width="18" height="18" viewBox="0 0 18 18" fill="none" xmlns="http://www.w3.org/2000/svg">
<g clip-path="url(#clip0_12037_655)">
<path d="M17.7174 9.19947C17.7174 8.4616 17.6588 7.92314 17.532 7.36475H9.28442V10.6952H14.1256C14.028 11.5228 13.5009 12.7693 12.3297 13.6068L12.3132 13.7183L14.921 15.7822L15.1016 15.8006C16.7609 14.235 17.7174 11.9316 17.7174 9.19947" fill="#4285F4"/>
<path d="M9.28442 17.9743C11.6562 17.9743 13.6473 17.1765 15.1016 15.8005L12.3296 13.6067C11.5879 14.1352 10.5923 14.5042 9.28442 14.5042C6.96145 14.5042 4.98986 12.9387 4.28704 10.7749L4.18402 10.7838L1.47247 12.9277L1.43701 13.0284C2.88154 15.96 5.84872 17.9743 9.28442 17.9743Z" fill="#34A853"/>
<path d="M4.28701 10.7749C4.10156 10.2165 3.99424 9.6182 3.99424 9C3.99424 8.38174 4.10156 7.78347 4.27725 7.22508L4.27234 7.10616L1.52681 4.92786L1.43698 4.97151C0.841619 6.18804 0.5 7.55415 0.5 9C0.5 10.4459 0.841619 11.8119 1.43698 13.0284L4.28701 10.7749" fill="#FBBC05"/>
<path d="M9.28442 3.49579C10.9339 3.49579 12.0466 4.2237 12.681 4.832L15.1602 2.35907C13.6376 0.913218 11.6562 0.0257568 9.28442 0.0257568C5.84872 0.0257568 2.88154 2.03997 1.43701 4.97155L4.27728 7.22512C4.98986 5.06132 6.96145 3.49579 9.28442 3.49579" fill="#EB4335"/>
</g>
<defs>
<clipPath id="clip0_12037_655">
<rect x="0.5" width="17.2174" height="18" rx="8.6087" fill="white"/>
</clipPath>
</defs>
</svg>
